<svg width="656" height="434" viewBox="0 0 656 434" fill="none" xmlns="http://www.w3.org/2000/svg">
<g clip-path="url(#clip0_20_231)">
<path d="M572.681 377.574C567.351 377.997 561.989 377.931 556.674 377.377C498.238 371.417 418.664 373.112 353.797 410.184C264.086 461.445 123.493 417.561 61.4752 393.687C14.0889 375.452 -10.5116 330.79 4.26488 288.868C4.47291 288.276 4.68673 287.684 4.9121 287.093C14.2102 262.179 32.5637 242.681 55.2918 232.346C75.1016 223.338 104.025 204.527 116.894 168.383C122.211 153.458 129.503 139.418 138.975 127.18C164.338 94.4041 217.434 45.595 308.751 45.8988C324.761 45.9704 340.652 48.4513 355.796 53.2439C389.157 63.7285 419.288 85.0442 442.265 114.595C456.925 133.443 478.897 150.963 510.351 152.392C554.004 154.385 595.663 173.132 626.915 206.494C627.817 207.453 628.707 208.418 629.597 209.394C685.241 270.537 646.592 371.615 572.681 377.574Z" fill="#6C63FF"/>
<g opacity="0.7">
<path opacity="0.7" d="M160.339 371.577C164.743 371.577 168.314 368.284 168.314 364.222C168.314 360.159 164.743 356.866 160.339 356.866C155.935 356.866 152.364 360.159 152.364 364.222C152.364 368.284 155.935 371.577 160.339 371.577Z" fill="url(#paint0_linear_20_231)"/>
</g>
<path opacity="0.2" d="M160.339 371.247C164.546 371.247 167.956 368.102 167.956 364.222C167.956 360.342 164.546 357.196 160.339 357.196C156.133 357.196 152.723 360.342 152.723 364.222C152.723 368.102 156.133 371.247 160.339 371.247Z" fill="black"/>
<path d="M117.373 223.466C119.001 223.466 120.321 222.249 120.321 220.747C120.321 219.246 119.001 218.029 117.373 218.029C115.746 218.029 114.426 219.246 114.426 220.747C114.426 222.249 115.746 223.466 117.373 223.466Z" fill="white"/>
<path d="M327.723 381.241C329.35 381.241 330.67 380.024 330.67 378.523C330.67 377.021 329.35 375.804 327.723 375.804C326.095 375.804 324.775 377.021 324.775 378.523C324.775 380.024 326.095 381.241 327.723 381.241Z" fill="white"/>
<path d="M203.478 393.901C204.388 393.901 205.125 393.22 205.125 392.381C205.125 391.542 204.388 390.862 203.478 390.862C202.568 390.862 201.831 391.542 201.831 392.381C201.831 393.22 202.568 393.901 203.478 393.901Z" fill="white"/>
<path d="M568.122 320.343C569.031 320.343 569.769 319.663 569.769 318.824C569.769 317.985 569.031 317.305 568.122 317.305C567.212 317.305 566.475 317.985 566.475 318.824C566.475 319.663 567.212 320.343 568.122 320.343Z" fill="white"/>
<path d="M473.927 183.888C474.836 183.888 475.574 183.208 475.574 182.369C475.574 181.53 474.836 180.85 473.927 180.85C473.017 180.85 472.28 181.53 472.28 182.369C472.28 183.208 473.017 183.888 473.927 183.888Z" fill="white"/>
<path d="M607.417 250.517C608.327 250.517 609.064 249.837 609.064 248.998C609.064 248.159 608.327 247.478 607.417 247.478C606.508 247.478 605.771 248.159 605.771 248.998C605.771 249.837 606.508 250.517 607.417 250.517Z" fill="white"/>
<path d="M169.383 134.45C171.011 134.45 172.33 133.233 172.33 131.732C172.33 130.231 171.011 129.013 169.383 129.013C167.755 129.013 166.436 130.231 166.436 131.732C166.436 133.233 167.755 134.45 169.383 134.45Z" fill="white"/>
<path d="M88.3812 315.663H85.7576V313.243H84.6885V315.663H82.0649V316.649H84.6885V319.064H85.7576V316.649H88.3812V315.663Z" fill="white"/>
<path d="M154.26 314.597H151.636V312.177H150.567V314.597H147.944V315.583H150.567V317.998H151.636V315.583H154.26V314.597Z" fill="white"/>
<path d="M248.454 363.635H245.831V361.215H244.762V363.635H242.138V364.621H244.762V367.036H245.831V364.621H248.454V363.635Z" fill="white"/>
<path d="M379.651 69.6718H378.455V68.5684H377.969V69.6718H376.773V70.1195H377.969V71.2229H378.455V70.1195H379.651V69.6718Z" fill="white"/>
<path d="M550.126 170.947H548.93V169.843H548.445V170.947H547.249V171.394H548.445V172.498H548.93V171.394H550.126V170.947Z" fill="white"/>
<path d="M449.575 237.042H448.379V235.938H447.893V237.042H446.697V237.49H447.893V238.593H448.379V237.49H449.575V237.042Z" fill="white"/>
<path d="M40.4345 278.618H39.2383V277.514H38.7529V278.618H37.5566V279.066H38.7529V280.169H39.2383V279.066H40.4345V278.618Z" fill="white"/>
<path d="M89.5544 369.232H88.3581V368.129H87.8727V369.232H86.6765V369.68H87.8727V370.783H88.3581V369.68H89.5544V369.232Z" fill="white"/>
<path d="M243.849 82.9974H242.653V81.894H242.167V82.9974H240.971V83.4451H242.167V84.5485H242.653V83.4451H243.849V82.9974Z" fill="white"/>
<path d="M171.036 242.372H169.839V241.269H169.354V242.372H168.158V242.82H169.354V243.923H169.839V242.82H171.036V242.372Z" fill="white"/>
<path d="M186.639 196.532H185.442V195.428H184.957V196.532H183.761V196.98H184.957V198.083H185.442V196.98H186.639V196.532Z" fill="white"/>
<g opacity="0.7">
<path opacity="0.7" d="M432.342 302.316C436.019 302.316 438.999 299.567 438.999 296.176C438.999 292.784 436.019 290.035 432.342 290.035C428.666 290.035 425.685 292.784 425.685 296.176C425.685 299.567 428.666 302.316 432.342 302.316Z" fill="url(#paint1_linear_20_231)"/>
</g>
<path opacity="0.2" d="M432.342 301.863C435.748 301.863 438.508 299.317 438.508 296.176C438.508 293.035 435.748 290.488 432.342 290.488C428.937 290.488 426.176 293.035 426.176 296.176C426.176 299.317 428.937 301.863 432.342 301.863Z" fill="black"/>
<path opacity="0.2" d="M448.945 342.57C452.752 342.57 455.839 339.723 455.839 336.211C455.839 332.699 452.752 329.852 448.945 329.852C445.137 329.852 442.051 332.699 442.051 336.211C442.051 339.723 445.137 342.57 448.945 342.57Z" fill="black"/>
<g opacity="0.7">
<path opacity="0.7" d="M387.164 163.655C387.211 150.296 383.741 137.126 377.051 125.277C373.878 119.712 370.983 116.258 368.752 114.131C367.9 113.301 366.787 112.738 365.57 112.522C364.353 112.306 363.093 112.448 361.968 112.927C361.068 113.221 360.255 113.705 359.593 114.339C356.582 117.218 353.86 121.023 351.502 125.069C344.468 137.2 340.82 150.756 340.887 164.513V172.764H335.148V76.8143C335.148 56.7086 330.271 36.8747 320.701 19.2848C316.171 10.9483 312.033 5.76732 308.861 2.58516C308.09 1.77533 307.142 1.12646 306.078 0.681929C305.014 0.237398 303.86 0.00744629 302.692 0.00744629C301.524 0.00744629 300.369 0.237398 299.305 0.681929C298.242 1.12646 297.293 1.77533 296.523 2.58516C292.223 6.89734 288.34 12.6007 284.965 18.6612C274.916 36.6348 269.813 57.039 269.813 77.7311V172.727H264.855V164.076C264.918 150.328 261.27 136.781 254.239 124.659C251.864 120.613 249.142 116.807 246.149 113.929C245.279 113.077 244.137 112.505 242.889 112.296C241.641 112.086 240.353 112.252 239.214 112.767L239.422 112.868C238.697 113.166 238.039 113.589 237.486 114.115C235.262 116.248 232.366 119.696 229.194 125.261C222.504 137.11 219.033 150.28 219.081 163.639V307.023H236.787L234.834 318.808V354.057H249.316V318.808L247.38 307.017H264.832V176.426H269.79V306.452H283.931L281.902 318.808V354.057H296.384V318.808L294.356 306.436H313.426L311.386 318.808V354.057H325.868V318.808L323.839 306.436H335.131V176.442H340.869V307.231H345.521V307.033H360.905L358.974 318.808V354.057H373.456V318.808L371.52 307.017H387.164V163.655Z" fill="url(#paint2_linear_20_231)"/>
</g>
<path d="M252.188 311.953H238.475L240.925 296.597H249.738L252.188 311.953Z" fill="#535461"/>
<g opacity="0.1">
<path opacity="0.1" d="M240.243 302.695H250.419L249.738 298.404H240.925L240.243 302.695Z" fill="black"/>
</g>
<path d="M369.7 311.953H355.993L358.437 296.597H367.256L369.7 311.953Z" fill="#535461"/>
<g opacity="0.1">
<path opacity="0.1" d="M357.755 302.695H367.937L367.255 298.404H358.437L357.755 302.695Z" fill="black"/>
</g>
<path d="M296.742 311.953H283.035L285.479 296.597H294.298L296.742 311.953Z" fill="#535461"/>
<g opacity="0.1">
<path opacity="0.1" d="M284.798 302.695H294.98L294.298 298.404H285.48L284.798 302.695Z" fill="black"/>
</g>
<path d="M324.654 311.953H310.947L313.391 296.597H322.204L324.654 311.953Z" fill="#535461"/>
<g opacity="0.1">
<path opacity="0.1" d="M312.709 302.695H322.891L322.204 298.404H313.391L312.709 302.695Z" fill="black"/>
</g>
<path d="M350.116 169.689H252.188V173.303H350.116V169.689Z" fill="#535461"/>
<path d="M365.25 112.612C364.733 112.085 364.101 111.664 363.397 111.375C362.692 111.087 361.93 110.938 361.159 110.938C360.388 110.938 359.625 111.087 358.921 111.375C358.216 111.664 357.585 112.085 357.067 112.612C354.218 115.416 351.641 119.121 349.393 123.06C342.725 134.913 339.276 148.083 339.344 161.437V300.472H382.685V160.851C382.739 147.866 379.458 135.054 373.109 123.465C370.099 118.049 367.359 114.659 365.25 112.612Z" fill="#E0E0E0"/>
<path d="M240.965 112.612C241.483 112.085 242.114 111.664 242.819 111.375C243.523 111.087 244.286 110.938 245.057 110.938C245.828 110.938 246.59 111.087 247.295 111.375C247.999 111.664 248.631 112.085 249.148 112.612C252.003 115.416 254.574 119.121 256.828 123.06C263.494 134.914 266.942 148.083 266.877 161.437V300.472H223.536V160.851C223.482 147.866 226.763 135.054 233.112 123.465C236.117 118.049 238.856 114.659 240.965 112.612Z" fill="#E0E0E0"/>
<path d="M223.785 163.815L234.071 163.863V175.557H223.785V163.815Z" fill="#535461"/>
<path d="M256.591 163.815L266.877 163.863V175.557H256.591V163.815Z" fill="#535461"/>
<path d="M339.344 163.815L349.624 163.863V175.557H339.344V163.815Z" fill="#535461"/>
<path d="M372.15 163.815L382.431 163.863V175.557H372.15V163.815Z" fill="#535461"/>
<g opacity="0.1">
<path opacity="0.1" d="M256.828 122.878C254.574 118.939 252.003 115.235 249.148 112.431C248.342 111.607 247.265 111.049 246.082 110.844C244.899 110.639 243.676 110.798 242.601 111.296C243.22 111.581 243.78 111.965 244.253 112.431C247.102 115.235 249.68 118.939 251.928 122.878C258.596 134.732 262.045 147.902 261.977 161.256V300.28H266.877V161.262C266.943 147.906 263.495 134.735 256.828 122.878V122.878Z" fill="black"/>
</g>
<g opacity="0.1">
<path opacity="0.1" d="M353.311 123.262C355.559 119.323 358.137 115.619 360.986 112.815C361.518 112.284 362.163 111.859 362.881 111.568C361.822 111.14 360.644 111.03 359.513 111.254C358.383 111.478 357.358 112.024 356.582 112.815C353.727 115.619 351.15 119.323 348.902 123.262C342.237 135.117 338.788 148.286 338.853 161.64V300.685H343.262V161.651C343.193 148.293 346.641 135.119 353.311 123.262V123.262Z" fill="black"/>
</g>
<path d="M245.519 346.28H245.143C243.375 346.28 241.678 345.632 240.428 344.478C239.177 343.325 238.475 341.76 238.475 340.129V311.953H252.188V340.129C252.188 341.76 251.485 343.325 250.235 344.478C248.984 345.632 247.288 346.28 245.519 346.28Z" fill="url(#paint3_linear_20_231)"/>
<path d="M290.079 346.28H289.698C287.93 346.279 286.235 345.63 284.986 344.477C283.737 343.323 283.035 341.759 283.035 340.129V311.953H296.742V340.129C296.742 341.759 296.04 343.323 294.791 344.477C293.542 345.63 291.847 346.279 290.079 346.28Z" fill="url(#paint4_linear_20_231)"/>
<path d="M317.985 346.28H317.598C315.833 346.276 314.141 345.626 312.894 344.473C311.647 343.32 310.947 341.758 310.947 340.129V311.953H324.654V340.129C324.654 341.76 323.952 343.325 322.701 344.478C321.45 345.632 319.754 346.28 317.985 346.28Z" fill="url(#paint5_linear_20_231)"/>
<path d="M363.037 346.28H362.673C361.796 346.281 360.928 346.123 360.117 345.815C359.307 345.506 358.57 345.054 357.95 344.482C357.329 343.911 356.837 343.232 356.501 342.485C356.166 341.738 355.993 340.938 355.993 340.129V311.953H369.7V340.129C369.7 341.759 368.998 343.323 367.749 344.477C366.499 345.63 364.805 346.279 363.037 346.28Z" fill="url(#paint6_linear_20_231)"/>
<path d="M308.549 3.59794C307.833 2.81215 306.939 2.18038 305.93 1.74695C304.921 1.31352 303.822 1.08893 302.709 1.08893C301.596 1.08893 300.497 1.31352 299.488 1.74695C298.479 2.18038 297.586 2.81215 296.87 3.59794C292.824 7.79819 289.126 13.347 285.89 19.2529C276.378 36.7575 271.547 56.6286 271.547 76.777V299.907H333.38V75.8815C333.38 56.3035 328.757 36.9707 319.719 19.8606C315.472 11.7426 311.559 6.69482 308.549 3.59794Z" fill="#EEEEEE"/>
<path d="M311.842 28.3836H292.287C288.776 28.3836 285.93 31.0087 285.93 34.2469V36.1604C285.93 39.3986 288.776 42.0237 292.287 42.0237H311.842C315.353 42.0237 318.199 39.3986 318.199 36.1604V34.2469C318.199 31.0087 315.353 28.3836 311.842 28.3836Z" fill="#535461"/>
<g opacity="0.1">
<path opacity="0.1" d="M333.085 84.4046H271.882V86.5953H333.085V84.4046Z" fill="black"/>
</g>
<path d="M439.791 165.947C438.186 164.003 436.179 162.372 433.885 161.15V161.15C431.25 159.748 428.301 158.924 425.265 158.742C422.229 158.559 419.189 159.023 416.379 160.098C413.569 161.172 411.064 162.828 409.058 164.938C407.053 167.048 405.6 169.555 404.813 172.265C404.025 174.975 403.924 177.816 404.517 180.568C405.11 183.321 406.381 185.91 408.232 188.137C410.083 190.363 412.465 192.167 415.193 193.41C417.92 194.652 420.921 195.299 423.963 195.301C424.385 195.301 424.807 195.301 425.217 195.258C428.792 195.05 432.24 193.952 435.193 192.082C438.147 190.212 440.496 187.639 441.991 184.636C443.486 181.634 444.072 178.313 443.685 175.028C443.299 171.743 441.956 168.616 439.797 165.979L439.791 165.947Z" fill="url(#paint7_linear_20_231)"/>
<path opacity="0.2" d="M442.71 176.97C442.709 181.368 440.892 185.6 437.629 188.806C434.365 192.012 429.9 193.951 425.142 194.229C424.755 194.229 424.356 194.267 423.957 194.267C421.079 194.268 418.239 193.659 415.657 192.486C413.075 191.312 410.82 189.607 409.067 187.501C407.315 185.395 406.111 182.946 405.549 180.342C404.987 177.738 405.082 175.05 405.827 172.486C406.572 169.921 407.947 167.549 409.846 165.554C411.744 163.558 414.114 161.992 416.774 160.977C419.434 159.962 422.311 159.525 425.183 159.7C428.055 159.875 430.845 160.657 433.336 161.986V161.986C435.508 163.149 437.406 164.7 438.919 166.549V166.549C441.383 169.547 442.714 173.208 442.71 176.97Z" fill="black"/>
<path opacity="0.1" d="M419.34 165.995C418.37 166.38 417.435 166.834 416.543 167.354C415.947 167.654 415.435 168.077 415.046 168.591C414.854 168.849 414.747 169.154 414.741 169.468C414.735 169.782 414.829 170.09 415.012 170.355C415.468 170.931 416.347 171.016 417.121 171.059C417.934 171.154 418.76 171.078 419.536 170.835C420.061 170.596 420.537 170.277 420.946 169.891L422.559 168.543C423.137 168.074 423.714 167.429 423.489 166.768C423.356 166.532 423.161 166.33 422.922 166.181C422.682 166.032 422.407 165.941 422.12 165.915C420.73 165.665 419.289 165.899 418.074 166.57" fill="black"/>
<g opacity="0.1">
<path opacity="0.1" d="M412.608 184.709C413.153 184.709 413.596 184.301 413.596 183.798C413.596 183.294 413.153 182.886 412.608 182.886C412.062 182.886 411.619 183.294 411.619 183.798C411.619 184.301 412.062 184.709 412.608 184.709Z" fill="black"/>
</g>
<g opacity="0.1">
<path opacity="0.1" d="M432.672 181.367C434.67 181.367 436.289 179.873 436.289 178.031C436.289 176.188 434.67 174.694 432.672 174.694C430.674 174.694 429.054 176.188 429.054 178.031C429.054 179.873 430.674 181.367 432.672 181.367Z" fill="black"/>
</g>
<g opacity="0.1">
<path opacity="0.1" d="M438.953 166.549C438.943 167.422 438.661 168.273 438.141 169.001C437.621 169.73 436.884 170.306 436.02 170.659C435.155 171.013 434.199 171.13 433.264 170.997C432.329 170.864 431.456 170.485 430.747 169.907C430.039 169.329 429.526 168.575 429.269 167.735C429.012 166.896 429.022 166.006 429.298 165.171C429.574 164.336 430.104 163.593 430.825 163.028C431.546 162.463 432.428 162.102 433.365 161.986V161.986C435.539 163.148 437.439 164.7 438.953 166.549Z" fill="black"/>
</g>
<g opacity="0.1">
<path opacity="0.1" d="M439.289 186.927C437.676 189.045 435.566 190.801 433.118 192.065C430.669 193.329 427.943 194.069 425.142 194.229C425.142 193.989 425.107 193.749 425.107 193.504C425.109 191.986 425.567 190.499 426.432 189.207C427.296 187.915 428.532 186.87 430.002 186.188C431.473 185.506 433.119 185.214 434.759 185.344C436.399 185.475 437.967 186.023 439.289 186.927V186.927Z" fill="black"/>
</g>
<path d="M183.628 264.69C182.509 263.325 181.106 262.18 179.502 261.321V261.321C177.66 260.325 175.594 259.734 173.465 259.594C171.335 259.455 169.199 259.771 167.224 260.518C165.248 261.265 163.486 262.422 162.075 263.9C160.664 265.378 159.642 267.136 159.089 269.038C158.535 270.94 158.465 272.934 158.884 274.865C159.303 276.796 160.199 278.612 161.504 280.171C162.808 281.73 164.485 282.99 166.404 283.853C168.323 284.716 170.432 285.159 172.567 285.147C172.862 285.147 173.145 285.147 173.445 285.121C175.935 284.966 178.334 284.195 180.388 282.888C182.443 281.581 184.077 279.787 185.118 277.695C186.159 275.603 186.569 273.291 186.305 271.002C186.041 268.713 185.112 266.532 183.616 264.69H183.628Z" fill="url(#paint8_linear_20_231)"/>
<path opacity="0.2" d="M185.662 272.381C185.661 275.45 184.393 278.402 182.117 280.639C179.84 282.876 176.725 284.229 173.405 284.422C173.133 284.422 172.827 284.422 172.579 284.422C170.572 284.422 168.593 283.996 166.793 283.177C164.994 282.358 163.423 281.168 162.201 279.7C160.98 278.232 160.141 276.524 159.75 274.708C159.358 272.893 159.425 271.019 159.944 269.232C160.464 267.444 161.422 265.79 162.745 264.399C164.067 263.007 165.72 261.915 167.573 261.206C169.427 260.498 171.432 260.192 173.435 260.313C175.437 260.433 177.382 260.977 179.12 261.902V261.902C180.638 262.717 181.962 263.804 183.015 265.1C184.738 267.194 185.668 269.752 185.662 272.381V272.381Z" fill="black"/>
<path opacity="0.1" d="M169.354 264.727C168.678 264.992 168.027 265.308 167.407 265.671C166.993 265.883 166.636 266.178 166.361 266.534C166.232 266.718 166.164 266.931 166.164 267.15C166.164 267.368 166.232 267.582 166.361 267.765C166.553 267.94 166.783 268.074 167.036 268.159C167.29 268.243 167.56 268.277 167.829 268.256C168.396 268.323 168.974 268.27 169.516 268.101C169.883 267.934 170.218 267.71 170.504 267.44L171.625 266.502C172.018 266.172 172.446 265.724 172.272 265.265C172.184 265.098 172.049 264.954 171.882 264.849C171.715 264.745 171.521 264.682 171.319 264.668C170.352 264.494 169.349 264.657 168.505 265.127" fill="black"/>
<g opacity="0.1">
<path opacity="0.1" d="M164.656 277.776C165.036 277.776 165.344 277.492 165.344 277.141C165.344 276.791 165.036 276.507 164.656 276.507C164.276 276.507 163.968 276.791 163.968 277.141C163.968 277.492 164.276 277.776 164.656 277.776Z" fill="black"/>
</g>
<g opacity="0.1">
<path opacity="0.1" d="M178.658 275.452C180.053 275.452 181.183 274.409 181.183 273.122C181.183 271.836 180.053 270.793 178.658 270.793C177.263 270.793 176.133 271.836 176.133 273.122C176.133 274.409 177.263 275.452 178.658 275.452Z" fill="black"/>
</g>
<g opacity="0.1">
<path opacity="0.1" d="M183.021 265.111C183.016 265.725 182.819 266.325 182.453 266.839C182.088 267.353 181.57 267.759 180.962 268.008C180.353 268.258 179.679 268.34 179.021 268.246C178.363 268.152 177.748 267.884 177.25 267.476C176.752 267.068 176.392 266.536 176.214 265.944C176.035 265.352 176.045 264.726 176.242 264.139C176.439 263.552 176.816 263.03 177.326 262.635C177.836 262.24 178.459 261.99 179.12 261.913C180.64 262.727 181.966 263.814 183.021 265.111V265.111Z" fill="black"/>
</g>
<g opacity="0.1">
<path opacity="0.1" d="M183.275 279.327C182.15 280.804 180.678 282.03 178.97 282.912C177.261 283.794 175.359 284.31 173.405 284.422C173.405 284.257 173.405 284.087 173.405 283.889C173.406 282.83 173.726 281.792 174.329 280.891C174.932 279.99 175.794 279.261 176.82 278.785C177.845 278.309 178.994 278.105 180.138 278.196C181.282 278.287 182.376 278.669 183.298 279.3L183.275 279.327Z" fill="black"/>
</g>
<path d="M551.819 229.238C552.407 229.238 552.883 228.799 552.883 228.258C552.883 227.716 552.407 227.277 551.819 227.277C551.232 227.277 550.756 227.716 550.756 228.258C550.756 228.799 551.232 229.238 551.819 229.238Z" fill="white"/>
</g>
<defs>
<linearGradient id="paint0_linear_20_231" x1="160.339" y1="371.577" x2="160.339" y2="356.871" gradientUnits="userSpaceOnUse">
<stop stop-color="#808080" stop-opacity="0.25"/>
<stop offset="0.54" stop-color="#808080" stop-opacity="0.12"/>
<stop offset="1" stop-color="#808080" stop-opacity="0.1"/>
</linearGradient>
<linearGradient id="paint1_linear_20_231" x1="10386.9" y1="7255.27" x2="10386.9" y2="6972.45" gradientUnits="userSpaceOnUse">
<stop stop-color="#808080" stop-opacity="0.25"/>
<stop offset="0.54" stop-color="#808080" stop-opacity="0.12"/>
<stop offset="1" stop-color="#808080" stop-opacity="0.1"/>
</linearGradient>
<linearGradient id="paint2_linear_20_231" x1="93829.9" y1="250370" x2="93829.9" y2="15185.2" gradientUnits="userSpaceOnUse">
<stop stop-color="#808080" stop-opacity="0.25"/>
<stop offset="0.54" stop-color="#808080" stop-opacity="0.12"/>
<stop offset="1" stop-color="#808080" stop-opacity="0.1"/>
</linearGradient>
<linearGradient id="paint3_linear_20_231" x1="245.334" y1="311.953" x2="245.334" y2="346.28" gradientUnits="userSpaceOnUse">
<stop stop-color="#E0E0E0"/>
<stop offset="0.31" stop-color="#FCCC63"/>
<stop offset="0.77" stop-color="#F55F44"/>
</linearGradient>
<linearGradient id="paint4_linear_20_231" x1="7603.44" y1="21874" x2="7603.44" y2="24084.6" gradientUnits="userSpaceOnUse">
<stop stop-color="#E0E0E0"/>
<stop offset="0.31" stop-color="#FCCC63"/>
<stop offset="0.77" stop-color="#F55F44"/>
</linearGradient>
<linearGradient id="paint5_linear_20_231" x1="8293.44" y1="21874" x2="8293.44" y2="24084.6" gradientUnits="userSpaceOnUse">
<stop stop-color="#E0E0E0"/>
<stop offset="0.31" stop-color="#FCCC63"/>
<stop offset="0.77" stop-color="#F55F44"/>
</linearGradient>
<linearGradient id="paint6_linear_20_231" x1="9406.95" y1="21874" x2="9406.95" y2="24084.7" gradientUnits="userSpaceOnUse">
<stop stop-color="#E0E0E0"/>
<stop offset="0.31" stop-color="#FCCC63"/>
<stop offset="0.77" stop-color="#F55F44"/>
</linearGradient>
<linearGradient id="paint7_linear_20_231" x1="30789" y1="15135.5" x2="30789" y2="12622.7" gradientUnits="userSpaceOnUse">
<stop stop-color="#808080" stop-opacity="0.25"/>
<stop offset="0.54" stop-color="#808080" stop-opacity="0.12"/>
<stop offset="1" stop-color="#808080" stop-opacity="0.1"/>
</linearGradient>
<linearGradient id="paint8_linear_20_231" x1="9351.49" y1="15044" x2="9351.49" y2="13818.2" gradientUnits="userSpaceOnUse">
<stop stop-color="#808080" stop-opacity="0.25"/>
<stop offset="0.54" stop-color="#808080" stop-opacity="0.12"/>
<stop offset="1" stop-color="#808080" stop-opacity="0.1"/>
</linearGradient>
<clipPath id="clip0_20_231">
<rect width="656" height="434" fill="white"/>
</clipPath>
</defs>
</svg>
